<mxfile host="Electron" agent="Mozilla/5.0 (Macintosh; Intel Mac OS X 10_15_7) AppleWebKit/537.36 (KHTML, like Gecko) draw.io/24.7.8 Chrome/128.0.6613.36 Electron/32.0.1 Safari/537.36" version="24.7.8">
  <diagram name="Page-1" id="Xf6VGhU0pZc0enxL77tq">
    <mxGraphModel dx="2074" dy="1125" grid="1" gridSize="10" guides="1" tooltips="1" connect="1" arrows="1" fold="1" page="1" pageScale="1" pageWidth="1169" pageHeight="827" math="0" shadow="0">
      <root>
        <mxCell id="0" />
        <mxCell id="1" parent="0" />
        <mxCell id="4_OFItTyOyLlhAxlVNDo-6" value="&lt;div&gt;&lt;b style=&quot;background-color: initial;&quot;&gt;Marketstack&lt;/b&gt;&lt;br&gt;&lt;/div&gt;" style="rounded=1;whiteSpace=wrap;html=1;align=center;verticalAlign=top;horizontal=1;labelPosition=center;verticalLabelPosition=bottom;" parent="1" vertex="1">
          <mxGeometry x="35" y="360" width="205" height="120" as="geometry" />
        </mxCell>
        <mxCell id="4_OFItTyOyLlhAxlVNDo-43" value="&lt;b&gt;Deployment in AWS ECS&lt;/b&gt;" style="rounded=1;whiteSpace=wrap;html=1;labelPosition=center;verticalLabelPosition=top;align=center;verticalAlign=bottom;" parent="1" vertex="1">
          <mxGeometry x="281" y="120" width="839" height="440" as="geometry" />
        </mxCell>
        <mxCell id="4_OFItTyOyLlhAxlVNDo-3" value="Data" style="strokeWidth=2;html=1;shape=mxgraph.flowchart.database;whiteSpace=wrap;" parent="1" vertex="1">
          <mxGeometry x="60" y="374" width="70" height="80" as="geometry" />
        </mxCell>
        <mxCell id="4_OFItTyOyLlhAxlVNDo-5" value="" style="aspect=fixed;sketch=0;html=1;dashed=0;whitespace=wrap;verticalLabelPosition=bottom;verticalAlign=top;fillColor=#2875E2;strokeColor=#ffffff;points=[[0.005,0.63,0],[0.1,0.2,0],[0.9,0.2,0],[0.5,0,0],[0.995,0.63,0],[0.72,0.99,0],[0.5,1,0],[0.28,0.99,0]];shape=mxgraph.kubernetes.icon2;kubernetesLabel=1;prIcon=api" parent="1" vertex="1">
          <mxGeometry x="160" y="390" width="50" height="48" as="geometry" />
        </mxCell>
        <mxCell id="4_OFItTyOyLlhAxlVNDo-12" value="&lt;div&gt;&lt;b style=&quot;background-color: initial;&quot;&gt;ETL Pipeline - Python&lt;/b&gt;&lt;br&gt;&lt;/div&gt;" style="rounded=1;whiteSpace=wrap;html=1;align=center;verticalAlign=top;horizontal=1;labelPosition=center;verticalLabelPosition=bottom;" parent="1" vertex="1">
          <mxGeometry x="361" y="360" width="480" height="120" as="geometry" />
        </mxCell>
        <mxCell id="4_OFItTyOyLlhAxlVNDo-15" value="" style="edgeStyle=orthogonalEdgeStyle;rounded=0;orthogonalLoop=1;jettySize=auto;html=1;" parent="1" source="4_OFItTyOyLlhAxlVNDo-8" target="4_OFItTyOyLlhAxlVNDo-9" edge="1">
          <mxGeometry relative="1" as="geometry" />
        </mxCell>
        <mxCell id="4_OFItTyOyLlhAxlVNDo-8" value="&lt;font color=&quot;#0000cc&quot;&gt;Extract&lt;/font&gt;" style="whiteSpace=wrap;html=1;aspect=fixed;fillColor=#dae8fc;strokeColor=#6c8ebf;" parent="1" vertex="1">
          <mxGeometry x="401" y="374" width="80" height="80" as="geometry" />
        </mxCell>
        <mxCell id="4_OFItTyOyLlhAxlVNDo-16" value="" style="edgeStyle=orthogonalEdgeStyle;rounded=0;orthogonalLoop=1;jettySize=auto;html=1;" parent="1" source="4_OFItTyOyLlhAxlVNDo-9" target="4_OFItTyOyLlhAxlVNDo-10" edge="1">
          <mxGeometry relative="1" as="geometry" />
        </mxCell>
        <mxCell id="4_OFItTyOyLlhAxlVNDo-9" value="&lt;font color=&quot;#0000cc&quot;&gt;Transform&lt;/font&gt;" style="whiteSpace=wrap;html=1;aspect=fixed;fillColor=#dae8fc;strokeColor=#6c8ebf;" parent="1" vertex="1">
          <mxGeometry x="561" y="374" width="80" height="80" as="geometry" />
        </mxCell>
        <mxCell id="4_OFItTyOyLlhAxlVNDo-10" value="&lt;font color=&quot;#0000cc&quot;&gt;Load&lt;/font&gt;" style="whiteSpace=wrap;html=1;aspect=fixed;fillColor=#dae8fc;strokeColor=#6c8ebf;" parent="1" vertex="1">
          <mxGeometry x="721" y="374" width="80" height="80" as="geometry" />
        </mxCell>
        <mxCell id="4_OFItTyOyLlhAxlVNDo-13" value="" style="endArrow=classic;html=1;rounded=0;entryX=0;entryY=0.5;entryDx=0;entryDy=0;" parent="1" source="4_OFItTyOyLlhAxlVNDo-5" target="4_OFItTyOyLlhAxlVNDo-8" edge="1">
          <mxGeometry width="50" height="50" relative="1" as="geometry">
            <mxPoint x="310" y="210" as="sourcePoint" />
            <mxPoint x="360" y="160" as="targetPoint" />
          </mxGeometry>
        </mxCell>
        <mxCell id="4_OFItTyOyLlhAxlVNDo-19" value="Dataset" style="image;aspect=fixed;html=1;points=[];align=center;fontSize=12;image=img/lib/azure2/databases/Azure_Database_PostgreSQL_Server.svg;labelPosition=center;verticalLabelPosition=top;verticalAlign=bottom;" parent="1" vertex="1">
          <mxGeometry x="981" y="382" width="48" height="64" as="geometry" />
        </mxCell>
        <mxCell id="4_OFItTyOyLlhAxlVNDo-25" value="" style="endArrow=classic;html=1;rounded=0;exitX=0.833;exitY=0.003;exitDx=0;exitDy=0;exitPerimeter=0;entryX=0;entryY=0.469;entryDx=0;entryDy=0;entryPerimeter=0;" parent="1" source="4_OFItTyOyLlhAxlVNDo-12" target="4_OFItTyOyLlhAxlVNDo-24" edge="1">
          <mxGeometry width="50" height="50" relative="1" as="geometry">
            <mxPoint x="771" y="360" as="sourcePoint" />
            <mxPoint x="921" y="290" as="targetPoint" />
            <Array as="points">
              <mxPoint x="761" y="319" />
            </Array>
          </mxGeometry>
        </mxCell>
        <mxCell id="4_OFItTyOyLlhAxlVNDo-28" value="" style="edgeStyle=orthogonalEdgeStyle;rounded=0;orthogonalLoop=1;jettySize=auto;html=1;entryX=0.5;entryY=0;entryDx=0;entryDy=0;" parent="1" source="4_OFItTyOyLlhAxlVNDo-27" target="4_OFItTyOyLlhAxlVNDo-12" edge="1">
          <mxGeometry relative="1" as="geometry">
            <mxPoint x="601.3199999999999" y="357" as="targetPoint" />
            <Array as="points" />
          </mxGeometry>
        </mxCell>
        <mxCell id="4_OFItTyOyLlhAxlVNDo-29" value="Triggers" style="edgeLabel;html=1;align=center;verticalAlign=middle;resizable=0;points=[];" parent="4_OFItTyOyLlhAxlVNDo-28" vertex="1" connectable="0">
          <mxGeometry x="-0.4253" y="1" relative="1" as="geometry">
            <mxPoint as="offset" />
          </mxGeometry>
        </mxCell>
        <mxCell id="4_OFItTyOyLlhAxlVNDo-27" value="Cron" style="image;aspect=fixed;html=1;points=[];align=center;fontSize=12;image=img/lib/azure2/general/Scheduler.svg;horizontal=1;verticalAlign=bottom;labelPosition=center;verticalLabelPosition=top;" parent="1" vertex="1">
          <mxGeometry x="581" y="230" width="40" height="40" as="geometry" />
        </mxCell>
        <mxCell id="4_OFItTyOyLlhAxlVNDo-31" value="" style="edgeStyle=orthogonalEdgeStyle;rounded=0;orthogonalLoop=1;jettySize=auto;html=1;" parent="1" source="4_OFItTyOyLlhAxlVNDo-30" edge="1">
          <mxGeometry relative="1" as="geometry">
            <mxPoint x="441" y="360" as="targetPoint" />
          </mxGeometry>
        </mxCell>
        <mxCell id="4_OFItTyOyLlhAxlVNDo-30" value="YAML cfg." style="shape=image;html=1;verticalAlign=bottom;verticalLabelPosition=top;labelBackgroundColor=#ffffff;imageAspect=0;aspect=fixed;image=https://cdn1.iconfinder.com/data/icons/bootstrap-vol-3/16/file-text-128.png;labelPosition=center;align=center;" parent="1" vertex="1">
          <mxGeometry x="421" y="230" width="40" height="40" as="geometry" />
        </mxCell>
        <mxCell id="4_OFItTyOyLlhAxlVNDo-32" value="Container" style="swimlane;whiteSpace=wrap;html=1;fillColor=#dae8fc;strokeColor=#6c8ebf;" parent="1" vertex="1">
          <mxGeometry x="321" y="174" width="560" height="346" as="geometry" />
        </mxCell>
        <mxCell id="4_OFItTyOyLlhAxlVNDo-33" value="" style="image;sketch=0;aspect=fixed;html=1;points=[];align=center;fontSize=12;image=img/lib/mscae/Docker.svg;" parent="4_OFItTyOyLlhAxlVNDo-32" vertex="1">
          <mxGeometry x="500" y="26" width="50" height="41" as="geometry" />
        </mxCell>
        <mxCell id="4_OFItTyOyLlhAxlVNDo-37" style="edgeStyle=orthogonalEdgeStyle;rounded=0;orthogonalLoop=1;jettySize=auto;html=1;entryX=0;entryY=0.5;entryDx=0;entryDy=0;entryPerimeter=0;" parent="1" source="4_OFItTyOyLlhAxlVNDo-10" target="4_OFItTyOyLlhAxlVNDo-19" edge="1">
          <mxGeometry relative="1" as="geometry" />
        </mxCell>
        <mxCell id="4_OFItTyOyLlhAxlVNDo-39" value="Container" style="swimlane;whiteSpace=wrap;html=1;fillColor=#dae8fc;strokeColor=#6c8ebf;" parent="1" vertex="1">
          <mxGeometry x="921" y="174" width="160" height="346" as="geometry" />
        </mxCell>
        <mxCell id="4_OFItTyOyLlhAxlVNDo-24" value="&lt;b&gt;Logs&lt;/b&gt;" style="image;aspect=fixed;html=1;points=[];align=center;fontSize=12;image=img/lib/azure2/databases/Azure_Database_PostgreSQL_Server.svg;labelPosition=center;verticalLabelPosition=top;verticalAlign=bottom;" parent="4_OFItTyOyLlhAxlVNDo-39" vertex="1">
          <mxGeometry x="60" y="115" width="48" height="64" as="geometry" />
        </mxCell>
        <mxCell id="4_OFItTyOyLlhAxlVNDo-40" value="" style="image;sketch=0;aspect=fixed;html=1;points=[];align=center;fontSize=12;image=img/lib/mscae/Docker.svg;" parent="4_OFItTyOyLlhAxlVNDo-39" vertex="1">
          <mxGeometry x="100" y="26" width="50" height="41" as="geometry" />
        </mxCell>
        <mxCell id="4_OFItTyOyLlhAxlVNDo-41" value="" style="outlineConnect=0;dashed=0;verticalLabelPosition=bottom;verticalAlign=top;align=center;html=1;shape=mxgraph.aws3.ecs;fillColor=#F58534;gradientColor=none;" parent="1" vertex="1">
          <mxGeometry x="1041" y="130" width="40" height="40" as="geometry" />
        </mxCell>
        <mxCell id="4_OFItTyOyLlhAxlVNDo-42" value="" style="rounded=1;whiteSpace=wrap;html=1;" parent="1" vertex="1">
          <mxGeometry x="500" y="290" width="120" height="60" as="geometry" />
        </mxCell>
      </root>
    </mxGraphModel>
  </diagram>
</mxfile>
